<svg xmlns="http://www.w3.org/2000/svg" width="600" height="400" viewBox="0 0 600 400"><rect width="100%" height="100%" fill="#DDDDDD"/><path fill="#999999" d="M155.73 169.11h8.29v50.61h-4.83q-1.12 0-1.87-.37t-1.45-1.24l-26.43-33.74q.21 2.31.21 4.27v31.08h-8.29v-50.61h4.93q.6 0 1.04.05.43.05.77.21.33.16.64.46.32.29.7.78l26.53 33.88q-.1-1.22-.17-2.41-.07-1.19-.07-2.21v-30.76Zm25.02 28.52h16.31q0-1.68-.47-3.16-.47-1.49-1.42-2.61-.94-1.12-2.39-1.77-1.46-.65-3.38-.65-3.75 0-5.9 2.14-2.15 2.13-2.75 6.05Zm22.05 5.22h-22.22q.21 2.76.98 4.78.77 2.01 2.03 3.32 1.26 1.31 2.99 1.96 1.73.65 3.83.65t3.63-.49q1.52-.49 2.66-1.09 1.13-.59 1.99-1.08.86-.49 1.66-.49 1.09 0 1.61.8l2.49 3.15q-1.44 1.68-3.22 2.82-1.79 1.14-3.73 1.82-1.94.68-3.95.97-2.02.28-3.91.28-3.74 0-6.96-1.25-3.22-1.24-5.6-3.67-2.38-2.44-3.75-6.02-1.36-3.59-1.36-8.32 0-3.67 1.19-6.91t3.41-5.63q2.22-2.4 5.43-3.8 3.2-1.4 7.22-1.4 3.4 0 6.27 1.08 2.87 1.09 4.93 3.17 2.07 2.08 3.24 5.11 1.17 3.03 1.17 6.91 0 1.96-.42 2.65-.42.68-1.61.68Zm53.2-19.04h6.58l-11.41 35.91h-6.93q-1.19 0-1.64-1.54l-6.44-20.76q-.32-1.05-.58-2.08-.26-1.03-.44-2.08-.21 1.05-.47 2.12-.26 1.06-.58 2.11l-6.54 20.69q-.42 1.54-1.86 1.54h-6.65l-11.37-35.91h6.89q.95 0 1.61.45.67.46.88 1.16l5.14 19.18q.39 1.57.69 3.08.29 1.5.5 3.01.39-1.51.83-3.01.43-1.51.92-3.08l5.95-19.25q.21-.7.83-1.16.61-.45 1.48-.45h3.82q.91 0 1.56.45.64.46.85 1.16l5.78 19.25q.45 1.57.86 3.1.4 1.52.78 3.02.46-2.97 1.3-6.12l5.28-19.18q.25-.7.88-1.16.63-.45 1.5-.45Zm35.35 3.88-1.96 3.12q-.35.56-.73.79-.39.22-.98.22-.63 0-1.35-.35-.72-.35-1.66-.78-.95-.44-2.15-.79-1.21-.35-2.86-.35-2.55 0-4 1.08-1.46 1.09-1.46 2.84 0 1.15.76 1.94.75.79 1.99 1.38 1.24.6 2.82 1.07 1.57.47 3.2 1.03 1.63.56 3.2 1.28 1.58.72 2.82 1.82 1.24 1.1 2 2.64.75 1.54.75 3.71 0 2.59-.93 4.78-.93 2.19-2.75 3.78-1.82 1.59-4.49 2.49-2.68.89-6.18.89-1.86 0-3.62-.33-1.77-.34-3.4-.93-1.63-.6-3.01-1.4-1.38-.81-2.43-1.75l1.99-3.29q.39-.6.91-.91.53-.32 1.33-.32.81 0 1.53.46.71.45 1.66.98.94.52 2.22.98 1.28.45 3.24.45 1.54 0 2.64-.36 1.1-.37 1.82-.97.72-.59 1.05-1.38.33-.79.33-1.63 0-1.26-.75-2.06-.75-.81-1.99-1.4-1.25-.6-2.84-1.07-1.59-.47-3.25-1.03-1.67-.56-3.26-1.31-1.59-.76-2.83-1.91-1.25-1.16-2-2.84t-.75-4.06q0-2.2.87-4.2.88-1.99 2.58-3.48 1.69-1.49 4.23-2.38 2.54-.89 5.86-.89 3.71 0 6.76 1.22 3.04 1.23 5.07 3.22Zm54.57-13.82-2.35 4.44q-.42.74-.89 1.07-.47.33-1.17.33-.74 0-1.59-.54-.86-.54-2.05-1.21-1.19-.66-2.78-1.2-1.6-.55-3.77-.55-1.96 0-3.43.48-1.47.47-2.46 1.31-1 .84-1.49 2.01t-.49 2.57q0 1.79 1 2.98.99 1.19 2.64 2.03 1.64.84 3.74 1.5 2.1.67 4.31 1.42 2.2.75 4.3 1.75 2.1 1 3.75 2.52 1.64 1.52 2.64 3.73 1 2.2 1 5.35 0 3.43-1.17 6.43-1.18 2.99-3.43 5.21-2.26 2.22-5.52 3.5-3.25 1.28-7.45 1.28-2.42 0-4.76-.47-2.35-.48-4.5-1.35-2.15-.88-4.04-2.1-1.89-1.23-3.36-2.73l2.76-4.52q.35-.49.91-.82.56-.33 1.19-.33.88 0 1.89.72 1.02.71 2.42 1.59 1.4.87 3.27 1.59 1.87.72 4.5.72 4.02 0 6.23-1.91 2.2-1.91 2.2-5.48 0-1.99-.99-3.25-1-1.26-2.65-2.12-1.64-.86-3.74-1.45-2.1-.6-4.27-1.3-2.17-.7-4.27-1.68-2.1-.98-3.75-2.55-1.64-1.58-2.64-3.94-1-2.36-1-5.83 0-2.76 1.11-5.39 1.1-2.62 3.2-4.65 2.1-2.03 5.18-3.26 3.08-1.22 7.07-1.22 4.48 0 8.26 1.4 3.78 1.4 6.44 3.92Zm19.7 46.41q-4.69 0-7.19-2.64-2.5-2.65-2.5-7.3v-20.06h-3.68q-.7 0-1.19-.45-.49-.46-.49-1.37v-3.43l5.78-.94 1.82-9.8q.17-.7.66-1.09.49-.38 1.26-.38h4.48v11.3h9.59v6.16h-9.59v19.46q0 1.69.83 2.63.82.94 2.25.94.81 0 1.35-.19t.95-.4q.4-.21.71-.4.32-.2.63-.2.39 0 .63.2.25.19.53.57l2.59 4.2q-1.89 1.58-4.34 2.38-2.45.81-5.08.81Zm29.96-37.03q3.99 0 7.27 1.29 3.27 1.3 5.6 3.68 2.32 2.38 3.58 5.81 1.26 3.43 1.26 7.66 0 4.27-1.26 7.7-1.26 3.43-3.58 5.85-2.33 2.41-5.6 3.71-3.28 1.3-7.27 1.3-4.02 0-7.31-1.3t-5.62-3.71q-2.33-2.42-3.6-5.85-1.28-3.43-1.28-7.7 0-4.23 1.28-7.66 1.27-3.43 3.6-5.81 2.33-2.38 5.62-3.68 3.29-1.29 7.31-1.29Zm0 30.34q4.48 0 6.64-3.01 2.15-3.01 2.15-8.82 0-5.81-2.15-8.85-2.16-3.05-6.64-3.05-4.55 0-6.73 3.07-2.19 3.06-2.19 8.83 0 5.78 2.19 8.81 2.18 3.02 6.73 3.02Zm31.96-27.61.52 4.06q1.68-3.22 3.99-5.06 2.31-1.84 5.46-1.84 2.49 0 3.99 1.09l-.56 6.47q-.17.63-.5.9-.34.26-.9.26-.52 0-1.55-.18-1.04-.17-2.02-.17-1.43 0-2.55.42-1.12.42-2.01 1.21-.9.78-1.58 1.9-.68 1.12-1.28 2.56v22.12h-8.64v-35.91h5.07q1.33 0 1.86.47.52.47.7 1.7Zm44.17-2.17h6.93l-19.56 45.78q-.39.91-1 1.38-.62.48-1.88.48h-6.44l6.72-14.43-14.52-33.21h7.59q1.02 0 1.6.49.57.49.85 1.12l7.63 18.62q.39.94.65 1.89.26.94.51 1.92.31-.98.63-1.94.31-.96.7-1.91l7.21-18.58q.28-.7.93-1.16.64-.45 1.45-.45Z"/></svg>